Coordinates
version=1
nRows=43
nColumns=12
inDegrees=yes

Units are S.I. units (second, meters, Newtons, ...)
Angles are in degrees

endheader
time	SC_y	SC_z	SC_x	AC_y	AC_z	AC_x	GH_y	GH_z	GH_yy	EL_x	PS_y
       0.0              -42.03          15.76          16.45          58.07         -13.67          -12.6         -67.47          40.85         -36.76          32.76          154.6
   0.03119              -42.03          15.76          16.45          58.07         -13.67          -12.6         -67.47          40.86         -36.74          32.78          154.6
   0.06238              -42.03          15.77          16.45          58.06         -13.67         -12.59         -67.48          40.87         -36.73          32.79          154.6
   0.09357              -42.03          15.77          16.45          58.06         -13.67         -12.59         -67.48          40.87         -36.72           32.8          154.6
    0.1248              -42.03          15.77          16.45          58.06         -13.67         -12.58         -67.48          40.88          -36.7          32.81          154.6
     0.156              -42.03          15.77          16.45          58.06         -13.67         -12.58         -67.49          40.89         -36.69          32.83          154.6
    0.1871              -42.04          15.78          16.45          58.05         -13.67         -12.58         -67.49           40.9         -36.67          32.84          154.6
    0.2183              -42.04          15.78          16.45          58.05         -13.67         -12.57          -67.5          40.91         -36.65          32.86          154.6
    0.2495              -42.04          15.78          16.45          58.05         -13.66         -12.56          -67.5          40.92         -36.64          32.88          154.6
    0.2807              -42.04          15.79          16.45          58.05         -13.66         -12.56         -67.51          40.93         -36.62           32.9          154.6
    0.3119              -42.04          15.79          16.45          58.04         -13.66         -12.55         -67.52          40.94         -36.59          32.92          154.6
    0.3431              -42.05          15.79          16.45          58.04         -13.66         -12.55         -67.52          40.95         -36.57          32.94          154.6
    0.3743              -42.05           15.8          16.45          58.03         -13.66         -12.54         -67.53          40.97         -36.54          32.96          154.6
    0.4055              -42.05           15.8          16.45          58.03         -13.66         -12.53         -67.54          40.98         -36.52          32.99          154.6
    0.4367              -42.05          15.81          16.46          58.02         -13.65         -12.52         -67.54           41.0         -36.49          33.02          154.5
    0.4679              -42.06          15.81          16.46          58.02         -13.65         -12.51         -67.55          41.01         -36.46          33.05          154.5
     0.499              -42.06          15.82          16.46          58.01         -13.65          -12.5         -67.56          41.03         -36.42          33.08          154.5
    0.5302              -42.06          15.83          16.46          58.01         -13.65         -12.49         -67.57          41.05         -36.38          33.11          154.5
    0.5614              -42.07          15.83          16.46           58.0         -13.65         -12.48         -67.58          41.08         -36.34          33.15          154.5
    0.5926              -42.07          15.84          16.46          57.99         -13.64         -12.46          -67.6           41.1          -36.3          33.19          154.5
    0.6238              -42.07          15.85          16.46          57.98         -13.64         -12.45         -67.61          41.13         -36.25          33.24          154.5
     0.655              -42.08          15.86          16.46          57.97         -13.64         -12.43         -67.63          41.16         -36.19          33.29          154.4
    0.6862              -42.08          15.87          16.47          57.96         -13.63         -12.42         -67.64          41.19         -36.13          33.35          154.4
    0.7174              -42.09          15.88          16.47          57.95         -13.63          -12.4         -67.66          41.22         -36.06          33.41          154.4
    0.7486               -42.1          15.89          16.47          57.94         -13.62         -12.37         -67.68          41.26         -35.99          33.48          154.4
    0.7798               -42.1          15.91          16.47          57.93         -13.62         -12.35         -67.71          41.31         -35.91          33.56          154.3
     0.811              -42.11          15.92          16.47          57.91         -13.61         -12.32         -67.73          41.36         -35.81          33.65          154.3
    0.8421              -42.12          15.94          16.48          57.89         -13.61         -12.29         -67.76          41.42         -35.71          33.74          154.3
    0.8733              -42.13          15.96          16.48          57.87          -13.6         -12.26         -67.79          41.48         -35.59          33.85          154.2
    0.9045              -42.14          15.98          16.48          57.85         -13.59         -12.22         -67.83          41.55         -35.45          33.98          154.2
    0.9357              -42.16          16.01          16.49          57.82         -13.58         -12.17         -67.87          41.63          -35.3          34.12          154.1
    0.9669              -42.17          16.04          16.49          57.79         -13.57         -12.12         -67.92          41.73         -35.12          34.29          154.1
    0.9981              -42.19          16.07           16.5          57.76         -13.56         -12.06         -67.98          41.84         -34.92          34.48          154.0
     1.029              -42.21          16.12           16.5          57.72         -13.54         -11.99         -68.04          41.96         -34.68           34.7          153.9
      1.06              -42.24          16.16          16.51          57.67         -13.53         -11.91         -68.12          42.11         -34.41          34.96          153.8
     1.092              -42.27          16.22          16.52          57.62          -13.5         -11.81         -68.21          42.29         -34.08          35.26          153.7
     1.123               -42.3          16.28          16.53          57.55         -13.48          -11.7         -68.32           42.5         -33.69          35.62          153.6
     1.154              -42.34          16.36          16.54          57.47         -13.45         -11.56         -68.44          42.75         -33.23          36.06          153.4
     1.185              -42.39          16.46          16.56          57.38         -13.42         -11.39          -68.6          43.05         -32.66          36.58          153.2
     1.216              -42.46          16.58          16.58          57.26         -13.37         -11.19         -68.79          43.42         -31.98          37.22          153.0
     1.248              -42.53          16.72           16.6          57.12         -13.32         -10.94         -69.02          43.87         -31.13          38.01          152.7
     1.279              -42.63           16.9          16.63          56.94         -13.26         -10.63         -69.32          44.44         -30.07           39.0          152.4
      1.31              -42.75          17.13          16.67          56.71         -13.17         -10.23         -69.68          45.15         -28.74          40.24          151.9
